<svg width="677" height="194" viewBox="0 0 677 194" fill="none" xmlns="http://www.w3.org/2000/svg">
<path d="M220.417 45.5624H237.018L247.728 79.3712C248.656 82.3143 249.513 85.2573 250.298 88.2003C251.155 91.0715 251.905 93.9069 252.547 96.7063H252.975C253.261 95.486 253.582 94.1581 253.939 92.7225C254.368 91.2151 254.796 89.7077 255.225 88.2003C255.653 86.6211 256.046 85.0778 256.403 83.5704C256.831 82.063 257.259 80.6633 257.688 79.3712L268.077 45.5624H284.677L290.032 113.395H277.501C276.93 106.002 276.395 98.6444 275.895 91.3228C275.466 83.9293 275.181 76.5359 275.038 69.1425L274.717 58.483H274.395C273.324 62.7181 272.182 67.0608 270.968 71.5112C269.754 75.9617 268.541 80.0173 267.327 83.6781L257.902 113.395H247.299L237.66 83.6781C236.018 78.6534 234.626 74.0595 233.483 69.8962C232.412 65.6611 231.484 61.8567 230.699 58.483H230.485C230.342 64.0819 230.092 69.9321 229.735 76.0334C229.449 82.1348 229.128 87.7696 228.771 92.9378L227.593 113.395H215.276L220.417 45.5624Z" fill="#A6CE39"/>
<path d="M298.94 113.395V62.2515H311.578V113.395H298.94ZM305.259 50.5153C303.045 50.5153 301.296 49.8693 300.011 48.5772C298.797 47.2852 298.19 45.6701 298.19 43.732C298.19 41.8657 298.833 40.2865 300.118 38.9945C301.403 37.6307 303.117 36.9487 305.259 36.9487C307.329 36.9487 309.007 37.5948 310.292 38.8868C311.578 40.1789 312.22 41.7939 312.22 43.732C312.22 45.6701 311.578 47.2852 310.292 48.5772C309.007 49.8693 307.329 50.5153 305.259 50.5153Z" fill="#A6CE39"/>
<path d="M332.957 113.395H320.32V62.2515H330.173L331.779 69.0348C334.207 66.5942 336.813 64.6921 339.598 63.3282C342.382 61.9644 345.488 61.2825 348.915 61.2825C354.413 61.2825 358.661 62.8257 361.66 65.9123C364.659 68.9271 366.158 73.234 366.158 78.8329V113.395H353.52V80.3403C353.52 77.6126 352.806 75.4233 351.378 73.7723C350.022 72.0496 347.951 71.1882 345.167 71.1882C343.096 71.1882 340.99 71.7625 338.848 72.911C336.706 73.9877 334.742 75.4592 332.957 77.3255V113.395Z" fill="#A6CE39"/>
<path d="M402.34 71.5112H388.31V97.137C388.31 99.5776 388.881 101.264 390.023 102.198C391.237 103.059 392.772 103.49 394.628 103.49C396.056 103.49 397.556 103.346 399.127 103.059C400.697 102.772 402.018 102.377 403.089 101.875L405.017 110.919C403.66 111.493 401.804 112.067 399.448 112.642C397.163 113.144 394.7 113.395 392.058 113.395C386.275 113.395 382.098 112.211 379.527 109.842C377.028 107.473 375.779 103.92 375.779 99.1828V71.5112H368.068V62.2515H375.779V46.3161H388.31V62.2515H402.34V71.5112Z" fill="#A6CE39"/>
<path d="M458.515 44.4857C462.585 44.4857 466.226 44.8087 469.439 45.4548C472.724 46.1008 475.687 47.0698 478.329 48.3619L475.544 57.6216C473.045 56.4014 470.475 55.54 467.833 55.0375C465.191 54.4633 462.513 54.1762 459.8 54.1762C456.801 54.1762 453.946 54.6427 451.232 55.5759C448.591 56.509 446.234 58.0164 444.164 60.0981C442.165 62.1079 440.558 64.7279 439.344 67.9581C438.202 71.1164 437.631 74.9926 437.631 79.5866C437.631 87.6978 439.416 93.9069 442.986 98.2137C446.627 102.521 451.804 104.674 458.515 104.674C462.728 104.674 466.012 104.207 468.368 103.274V86.4776H456.694V76.5718H480.792V110.381C477.936 111.601 474.687 112.606 471.046 113.395C467.404 114.113 463.228 114.472 458.515 114.472C453.66 114.472 449.09 113.718 444.806 112.211C440.594 110.704 436.917 108.478 433.775 105.535C430.633 102.592 428.17 98.9674 426.385 94.6606C424.6 90.2819 423.708 85.2573 423.708 79.5866C423.708 73.9159 424.6 68.8912 426.385 64.5126C428.17 60.134 430.598 56.4731 433.668 53.5301C436.81 50.5153 440.487 48.2542 444.699 46.7468C448.983 45.2394 453.589 44.4857 458.515 44.4857Z" fill="#A6CE39"/>
<path d="M487.641 113.395V36.7334H500.065V113.395H487.641Z" fill="#A6CE39"/>
<path d="M556.616 87.4466C556.616 91.6817 555.938 95.486 554.581 98.8598C553.296 102.233 551.475 105.069 549.119 107.366C546.763 109.663 544.014 111.421 540.872 112.642C537.731 113.862 534.339 114.472 530.698 114.472C527.057 114.472 523.665 113.898 520.523 112.749C517.453 111.601 514.776 109.95 512.491 107.796C510.206 105.571 508.421 102.844 507.136 99.6134C505.851 96.3833 505.208 92.6866 505.208 88.5233C505.208 84.2164 505.851 80.3762 507.136 77.0025C508.492 73.557 510.349 70.6858 512.705 68.3888C515.061 66.0918 517.81 64.3331 520.952 63.1129C524.093 61.8926 527.485 61.2825 531.126 61.2825C534.768 61.2825 538.123 61.8567 541.194 63.0052C544.335 64.0819 547.048 65.7329 549.333 67.9581C551.618 70.1833 553.403 72.911 554.688 76.1411C555.973 79.3712 556.616 83.1397 556.616 87.4466ZM543.55 87.9849C543.55 84.8984 543.193 82.2784 542.479 80.1249C541.765 77.8997 540.801 76.1052 539.587 74.7414C538.445 73.3775 537.088 72.3726 535.517 71.7266C534.018 71.0805 532.447 70.7575 530.805 70.7575C529.163 70.7575 527.592 71.0447 526.093 71.6189C524.593 72.1214 523.272 73.0545 522.13 74.4184C520.988 75.7104 520.059 77.4691 519.345 79.6943C518.631 81.9195 518.274 84.683 518.274 87.9849C518.274 90.9997 518.631 93.5839 519.345 95.7373C520.059 97.8189 520.988 99.5776 522.13 101.013C523.344 102.377 524.7 103.382 526.2 104.028C527.77 104.674 529.377 104.997 531.019 104.997C532.59 104.997 534.125 104.71 535.624 104.136C537.195 103.561 538.552 102.628 539.694 101.336C540.837 100.044 541.765 98.3214 542.479 96.168C543.193 93.9428 543.55 91.2151 543.55 87.9849Z" fill="#A6CE39"/>
<path d="M610.568 87.9849C610.568 92.0765 609.962 95.7732 608.748 99.0751C607.534 102.305 605.856 105.069 603.714 107.366C601.572 109.663 599.037 111.421 596.11 112.642C593.254 113.862 590.184 114.472 586.899 114.472C583.544 114.472 580.652 114.006 578.224 113.072C575.868 112.067 573.726 110.596 571.798 108.658H571.477L570.513 113.395H561.41V36.7334H573.94V67.2044C575.939 65.3381 578.189 63.9025 580.688 62.8975C583.187 61.8208 585.828 61.2825 588.613 61.2825C595.396 61.2825 600.751 63.6512 604.678 68.3888C608.605 73.0545 610.568 79.5866 610.568 87.9849ZM597.502 88.2003C597.502 82.8167 596.396 78.6534 594.182 75.7104C591.969 72.6956 588.899 71.1882 584.972 71.1882C582.758 71.1882 580.723 71.7266 578.867 72.8033C577.01 73.88 575.404 75.1721 574.047 76.6795V100.582C575.19 101.946 576.546 103.023 578.117 103.813C579.688 104.602 581.473 104.997 583.472 104.997C585.257 104.997 587.006 104.674 588.72 104.028C590.434 103.382 591.933 102.377 593.218 101.013C594.503 99.5776 595.539 97.8189 596.324 95.7373C597.11 93.6556 597.502 91.1433 597.502 88.2003Z" fill="#A6CE39"/>
<path d="M615.882 66.7737C619.024 65.051 622.201 63.723 625.414 62.7899C628.627 61.7849 632.162 61.2825 636.017 61.2825C639.016 61.2825 641.729 61.6414 644.157 62.3592C646.584 63.0052 648.691 64.0819 650.476 65.5893C652.261 67.0967 653.617 69.0707 654.545 71.5112C655.545 73.88 656.045 76.7871 656.045 80.2326V113.395H646.085L644.799 108.012H644.478C640.837 112.319 635.66 114.472 628.949 114.472C623.594 114.472 619.417 113.072 616.418 110.273C613.419 107.402 611.92 103.705 611.92 99.1828C611.92 96.3115 612.527 93.8351 613.74 91.7534C614.954 89.6718 616.596 87.9491 618.667 86.5852C620.809 85.2214 623.344 84.2165 626.271 83.5704C629.198 82.8526 632.376 82.4937 635.803 82.4937H643.3V78.9406C643.3 76.1411 642.479 74.1671 640.837 73.0186C639.194 71.7984 636.981 71.1882 634.196 71.1882C632.197 71.1882 630.055 71.5112 627.77 72.1573C625.557 72.8033 623.094 73.9159 620.381 75.4951L615.882 66.7737ZM643.407 90.5691L637.624 90.7844C632.911 90.928 629.627 91.7534 627.77 93.2608C625.914 94.6965 624.986 96.4551 624.986 98.5367C624.986 101.193 625.771 102.987 627.342 103.92C628.913 104.853 630.734 105.32 632.804 105.32C634.875 105.32 636.838 104.818 638.695 103.813C640.622 102.736 642.193 101.264 643.407 99.3981V90.5691Z" fill="#A6CE39"/>
<path d="M664.159 113.395V36.7334H676.583V113.395H664.159Z" fill="#A6CE39"/>
<path d="M218.595 149.665V127.539H227.224C229.163 127.539 230.817 127.845 232.186 128.456C233.556 129.067 234.61 129.952 235.347 131.111C236.085 132.27 236.454 133.65 236.454 135.251C236.454 136.853 236.085 138.233 235.347 139.392C234.61 140.53 233.556 141.404 232.186 142.016C230.817 142.627 229.163 142.932 227.224 142.932H220.333L221.756 141.478V149.665H218.595ZM233.388 149.665L227.761 141.636H231.143L236.833 149.665H233.388ZM221.756 141.794L220.333 140.245H227.129C229.152 140.245 230.68 139.813 231.712 138.95C232.766 138.065 233.293 136.832 233.293 135.251C233.293 133.671 232.766 132.449 231.712 131.585C230.68 130.721 229.152 130.289 227.129 130.289H220.333L221.756 128.709V141.794Z" fill="#056A77"/>
<path d="M251.39 137.085H262.769V139.771H251.39V137.085ZM251.675 146.915H264.571V149.665H248.514V127.539H264.128V130.289H251.675V146.915Z" fill="#056A77"/>
<path d="M283.091 149.918C281.405 149.918 279.793 149.665 278.255 149.159C276.716 148.632 275.505 147.958 274.62 147.136L275.789 144.671C276.632 145.408 277.707 146.019 279.013 146.504C280.32 146.989 281.679 147.231 283.091 147.231C284.376 147.231 285.419 147.083 286.22 146.788C287.021 146.493 287.611 146.093 287.99 145.587C288.369 145.06 288.559 144.47 288.559 143.817C288.559 143.059 288.306 142.447 287.8 141.984C287.316 141.52 286.673 141.152 285.872 140.878C285.093 140.583 284.229 140.33 283.28 140.119C282.332 139.908 281.373 139.666 280.404 139.392C279.456 139.097 278.581 138.728 277.781 138.286C277.001 137.843 276.369 137.253 275.884 136.516C275.399 135.757 275.157 134.788 275.157 133.608C275.157 132.47 275.452 131.427 276.042 130.479C276.653 129.509 277.58 128.74 278.824 128.171C280.088 127.581 281.689 127.286 283.628 127.286C284.913 127.286 286.188 127.455 287.453 127.792C288.717 128.129 289.813 128.614 290.74 129.246L289.697 131.775C288.749 131.142 287.748 130.689 286.694 130.415C285.64 130.12 284.618 129.973 283.628 129.973C282.385 129.973 281.363 130.131 280.562 130.447C279.761 130.763 279.171 131.184 278.792 131.711C278.434 132.238 278.255 132.828 278.255 133.481C278.255 134.261 278.497 134.883 278.982 135.346C279.487 135.81 280.13 136.179 280.91 136.452C281.711 136.726 282.585 136.979 283.533 137.211C284.481 137.422 285.43 137.664 286.378 137.938C287.347 138.212 288.222 138.57 289.001 139.013C289.802 139.455 290.445 140.045 290.93 140.783C291.414 141.52 291.657 142.469 291.657 143.628C291.657 144.744 291.351 145.787 290.74 146.757C290.129 147.705 289.181 148.474 287.895 149.064C286.631 149.633 285.029 149.918 283.091 149.918Z" fill="#056A77"/>
<path d="M313.216 149.918C311.53 149.918 309.961 149.633 308.507 149.064C307.074 148.495 305.83 147.705 304.777 146.694C303.723 145.661 302.901 144.46 302.311 143.09C301.721 141.721 301.426 140.224 301.426 138.602C301.426 136.979 301.721 135.483 302.311 134.114C302.901 132.744 303.723 131.553 304.777 130.542C305.83 129.509 307.074 128.709 308.507 128.14C309.939 127.571 311.509 127.286 313.216 127.286C314.902 127.286 316.451 127.571 317.863 128.14C319.295 128.687 320.539 129.478 321.592 130.51C322.667 131.522 323.489 132.712 324.058 134.082C324.648 135.452 324.943 136.958 324.943 138.602C324.943 140.245 324.648 141.752 324.058 143.122C323.489 144.491 322.667 145.693 321.592 146.725C320.539 147.737 319.295 148.527 317.863 149.096C316.451 149.644 314.902 149.918 313.216 149.918ZM313.216 147.104C314.438 147.104 315.566 146.894 316.598 146.472C317.652 146.051 318.558 145.461 319.316 144.702C320.096 143.923 320.697 143.016 321.118 141.984C321.561 140.951 321.782 139.824 321.782 138.602C321.782 137.38 321.561 136.252 321.118 135.22C320.697 134.187 320.096 133.292 319.316 132.533C318.558 131.753 317.652 131.153 316.598 130.731C315.566 130.31 314.438 130.099 313.216 130.099C311.973 130.099 310.824 130.31 309.771 130.731C308.738 131.153 307.832 131.753 307.053 132.533C306.273 133.292 305.662 134.187 305.219 135.22C304.798 136.252 304.587 137.38 304.587 138.602C304.587 139.824 304.798 140.951 305.219 141.984C305.662 143.016 306.273 143.923 307.053 144.702C307.832 145.461 308.738 146.051 309.771 146.472C310.824 146.894 311.973 147.104 313.216 147.104Z" fill="#056A77"/>
<path d="M345.894 149.918C342.986 149.918 340.7 149.085 339.035 147.42C337.37 145.756 336.538 143.322 336.538 140.119V127.539H339.699V139.993C339.699 142.458 340.236 144.26 341.311 145.398C342.406 146.535 343.945 147.104 345.926 147.104C347.927 147.104 349.466 146.535 350.54 145.398C351.636 144.26 352.184 142.458 352.184 139.993V127.539H355.25V140.119C355.25 143.322 354.418 145.756 352.753 147.42C351.109 149.085 348.823 149.918 345.894 149.918Z" fill="#056A77"/>
<path d="M368.684 149.665V127.539H377.313C379.251 127.539 380.906 127.845 382.275 128.456C383.645 129.067 384.699 129.952 385.436 131.111C386.174 132.27 386.542 133.65 386.542 135.251C386.542 136.853 386.174 138.233 385.436 139.392C384.699 140.53 383.645 141.404 382.275 142.016C380.906 142.627 379.251 142.932 377.313 142.932H370.422L371.845 141.478V149.665H368.684ZM383.476 149.665L377.85 141.636H381.232L386.922 149.665H383.476ZM371.845 141.794L370.422 140.245H377.218C379.241 140.245 380.769 139.813 381.801 138.95C382.855 138.065 383.382 136.832 383.382 135.251C383.382 133.671 382.855 132.449 381.801 131.585C380.769 130.721 379.241 130.289 377.218 130.289H370.422L371.845 128.709V141.794Z" fill="#056A77"/>
<path d="M408.496 149.918C406.81 149.918 405.251 149.644 403.818 149.096C402.406 148.527 401.174 147.737 400.12 146.725C399.087 145.693 398.276 144.491 397.686 143.122C397.096 141.752 396.801 140.245 396.801 138.602C396.801 136.958 397.096 135.452 397.686 134.082C398.276 132.712 399.098 131.522 400.152 130.51C401.205 129.478 402.438 128.687 403.85 128.14C405.283 127.571 406.842 127.286 408.528 127.286C410.235 127.286 411.804 127.581 413.237 128.171C414.691 128.74 415.924 129.594 416.935 130.731L414.881 132.723C414.038 131.838 413.09 131.185 412.036 130.763C410.983 130.321 409.855 130.099 408.654 130.099C407.411 130.099 406.252 130.31 405.177 130.731C404.124 131.153 403.207 131.743 402.427 132.501C401.648 133.26 401.037 134.166 400.594 135.22C400.173 136.252 399.962 137.38 399.962 138.602C399.962 139.824 400.173 140.962 400.594 142.016C401.037 143.048 401.648 143.944 402.427 144.702C403.207 145.461 404.124 146.051 405.177 146.472C406.252 146.894 407.411 147.104 408.654 147.104C409.855 147.104 410.983 146.894 412.036 146.472C413.09 146.03 414.038 145.355 414.881 144.449L416.935 146.441C415.924 147.579 414.691 148.442 413.237 149.032C411.804 149.623 410.224 149.918 408.496 149.918Z" fill="#056A77"/>
<path d="M431.275 137.085H442.654V139.771H431.275V137.085ZM431.559 146.915H444.455V149.665H428.398V127.539H444.013V130.289H431.559V146.915Z" fill="#056A77"/>
<path d="M462.975 149.918C461.289 149.918 459.677 149.665 458.139 149.159C456.601 148.632 455.389 147.958 454.504 147.136L455.674 144.671C456.516 145.408 457.591 146.019 458.898 146.504C460.204 146.989 461.563 147.231 462.975 147.231C464.26 147.231 465.303 147.083 466.104 146.788C466.905 146.493 467.495 146.093 467.874 145.587C468.254 145.06 468.443 144.47 468.443 143.817C468.443 143.059 468.19 142.447 467.685 141.984C467.2 141.52 466.557 141.152 465.757 140.878C464.977 140.583 464.113 140.33 463.165 140.119C462.216 139.908 461.258 139.666 460.288 139.392C459.34 139.097 458.466 138.728 457.665 138.286C456.885 137.843 456.253 137.253 455.768 136.516C455.284 135.757 455.041 134.788 455.041 133.608C455.041 132.47 455.336 131.427 455.926 130.479C456.538 129.509 457.465 128.74 458.708 128.171C459.972 127.581 461.574 127.286 463.512 127.286C464.798 127.286 466.073 127.455 467.337 127.792C468.601 128.129 469.697 128.614 470.624 129.246L469.581 131.775C468.633 131.142 467.632 130.689 466.578 130.415C465.525 130.12 464.503 129.973 463.512 129.973C462.269 129.973 461.247 130.131 460.446 130.447C459.646 130.763 459.056 131.184 458.676 131.711C458.318 132.238 458.139 132.828 458.139 133.481C458.139 134.261 458.381 134.883 458.866 135.346C459.372 135.81 460.014 136.179 460.794 136.452C461.595 136.726 462.469 136.979 463.418 137.211C464.366 137.422 465.314 137.664 466.262 137.938C467.232 138.212 468.106 138.57 468.886 139.013C469.687 139.455 470.329 140.045 470.814 140.783C471.298 141.52 471.541 142.469 471.541 143.628C471.541 144.744 471.235 145.787 470.624 146.757C470.013 147.705 469.065 148.474 467.779 149.064C466.515 149.633 464.914 149.918 462.975 149.918Z" fill="#056A77"/>
<path d="M498.555 149.665V127.539H501.715V146.915H513.695V149.665H498.555Z" fill="#056A77"/>
<path d="M524.276 149.665V127.539H527.436V149.665H524.276Z" fill="#056A77"/>
<path d="M541.014 149.665V127.539H543.606L553.531 144.26H552.14L561.939 127.539H564.531L564.562 149.665H561.528L561.496 132.312H562.223L553.499 146.978H552.046L543.258 132.312H544.049V149.665H541.014Z" fill="#056A77"/>
<path d="M578.156 149.665V127.539H581.317V149.665H578.156Z" fill="#056A77"/>
<path d="M599.288 149.665V130.289H591.703V127.539H610.004V130.289H602.418V149.665H599.288Z" fill="#056A77"/>
<path d="M623.276 137.085H634.655V139.771H623.276V137.085ZM623.561 146.915H636.457V149.665H620.4V127.539H636.014V130.289H623.561V146.915Z" fill="#056A77"/>
<path d="M648.529 149.665V127.539H657.853C660.213 127.539 662.289 128.003 664.08 128.93C665.892 129.857 667.293 131.153 668.284 132.818C669.295 134.482 669.801 136.41 669.801 138.602C669.801 140.793 669.295 142.721 668.284 144.386C667.293 146.051 665.892 147.347 664.08 148.274C662.289 149.201 660.213 149.665 657.853 149.665H648.529ZM651.689 146.915H657.663C659.497 146.915 661.077 146.567 662.404 145.872C663.753 145.176 664.796 144.207 665.534 142.964C666.271 141.699 666.64 140.245 666.64 138.602C666.64 136.937 666.271 135.483 665.534 134.24C664.796 132.997 663.753 132.027 662.404 131.332C661.077 130.637 659.497 130.289 657.663 130.289H651.689V146.915Z" fill="#056A77"/>
<path d="M90.2022 0H75.6822V35.1537H69.5685V13.4356C46.3023 22.1375 29.1109 43.2868 26.0973 68.7789H160.421C157.407 43.2868 140.216 22.1375 116.95 13.4356V35.1537H110.836V0H96.3159V17.9589H90.2022V0Z" fill="#A6CE39"/>
<path d="M11.1064 83.872C11.1064 78.9128 15.1267 74.8926 20.0859 74.8926H166.05C171.009 74.8926 175.029 78.9128 175.029 83.872C175.029 88.8313 171.009 92.8515 166.05 92.8515H20.0859C15.1267 92.8515 11.1064 88.8313 11.1064 83.872Z" fill="#A6CE39"/>
<path fill-rule="evenodd" clip-rule="evenodd" d="M77.5464 99.9492H0C0 129.616 13.8741 156.043 35.4878 173.095L77.5464 99.9492ZM45.8054 180.168C59.6702 188.362 75.8437 193.065 93.1156 193.065C108.433 193.065 122.887 189.366 135.632 182.814H57.6763L79.0737 145.005L86.2693 157.868L79.0737 170.146H135.124L128.685 157.868H100.471L107.288 145.005H135.124L150.838 173.02C172.398 155.966 186.231 129.573 186.231 99.9492H109.632L128.555 133.864H114.921L107.726 121.293L93.5237 146.434L79.5112 121.293L45.8054 180.168ZM105.766 99.9492L93.5237 121.293L81.445 99.9492H105.766Z" fill="#056A77"/>
</svg>
